<?xml version="1.0" encoding="UTF-8"?>
<svg id="Layer_1" data-name="Layer 1" xmlns="http://www.w3.org/2000/svg" viewBox="0 0 339 78.2">
  <defs>
    <style>
      .cls-1 {
        fill: #2aa4b1;
      }
    </style>
  </defs>
  <g>
    <path class="cls-1" d="M194.43,66.95l-.65-1V18.58c.14-.43.31-.66.77-.75.73-.13,6.74-.12,7.33.05,1.24.36.39,2.59.81,3.51,7.25-7.95,18.91-4.52,23.75,4.25,7.71,13.98-2.38,35.31-19.89,28.55l-3.73-2.76c-.34,4.52.45,9.69,0,14.13-.07.65-.17,1.06-.76,1.39h-7.64ZM210.41,26.04c-10.6.97-10.12,20.86.95,20.56,11.51-.31,10.69-21.63-.95-20.56Z"/>
    <path class="cls-1" d="M106.37,39.97l7.12-22.02c2.6-.37,5.48-.76,7.91.24l6.98,21.52,6.73-21.52c.22-.33.55-.33.9-.38,1.36-.18,5.78-.18,7.15,0s1.24,1.18,1.02,2.32l-11.7,34.37c-.57.41-8.02.39-8.49-.08l-6.15-19.68-.65-.62-6.48,20.25c-.22.33-.55.33-.9.38-1.41.19-4.9.12-6.39,0-.43-.04-1.13-.03-1.41-.44-.36-.55-1.19-3.36-1.51-4.28-3.25-9.09-7.29-19.98-9.73-29.21-.26-1-.81-2.01.06-2.87,1.82,0,3.68-.43,5.49-.39.93.02,2.91.2,3.43.9l6.62,21.51Z"/>
    <path class="cls-1" d="M188.24,20.97c.23.24.53.75.59,1.08.22,1.41-2.43,6.46-3.8,6.88s-1.85-.64-2.72-1.13c-2.44-1.36-6-2.92-8.74-1.7-1.95.86-2.14,3.04-.34,4.16,2.29,1.43,6.84,1.96,9.6,3.13,5.46,2.3,7.32,6.22,6.78,12.05-.95,10.29-13.17,11.56-21.11,8.9-1.82-.61-7.85-3.42-7.29-5.72.07-.29,2.65-4.55,2.95-4.9,2.11-2.44,3.4,0,5.37,1.18,2.37,1.42,8.76,3.71,10.52.64,2.28-3.99-6.33-5.12-8.75-5.97-6.6-2.33-9.07-5.45-8.41-12.71.89-9.68,12.83-11.39,20.35-8.65,1.13.41,4.25,1.95,5.02,2.75Z"/>
    <g>
      <path class="cls-1" d="M253.73,51.68c-7.15,7.3-21.01,4.14-22.11-6.78-1.35-13.42,11.58-14.28,21.6-13.08-.58-6.62-7.29-7.01-12.13-4.37-1.32.72-2.79,2.58-4.41,1.44-.65-.46-3.26-5.08-3.3-5.87-.07-1.61,2.04-2.62,3.29-3.29,1.85-1.01,4.69-2.16,6.78-2.38,10.65-1.12,18.38,2.17,19.18,13.84.51,7.4-.33,15.39-.05,22.85-.07.23-.24.46-.46.56-.41.2-7.12.25-7.71.07-1.08-.32-.59-2.13-.69-3ZM253.22,39.46c-3.23-.32-9.46-1.71-11.57,1.54-1.75,2.69.35,5.88,3.31,6.34,4.84.74,8.94-2.94,8.25-7.87Z"/>
      <g>
        <path class="cls-1" d="M336.2,32.84v6.62l-1.38.53h-23.31c1.45,6.15,8.18,8.45,13.57,5.54,1.56-.84,3.18-3.52,4.9-2.51.36.21,4.3,3.97,4.39,4.27.44,1.47-1.59,3.25-2.63,4.14-10.44,8.92-27.02,3.2-29.53-10.42-4.63-25.09,26.63-34.14,33.62-10.21l.37,2.05ZM326.51,32.31c-.92-8.79-13.39-8.6-15-.13.03.29,1.12.4,1.4.42,3.41.23,8.58.23,11.98,0,.56-.04,1.08-.19,1.62-.29Z"/>
        <path class="cls-1" d="M292.01,30.21c-.48-.41-.95-1.25-1.64-1.8-4.99-4.03-11.44-2.45-13.66,3.6-3.28,8.93,4.66,18.98,13.41,12.64,2.91-2.11,2.25-4.29,6.13-1,.83.7,3.29,2.9,2.95,3.95-.55,1.73-4.91,5.29-6.6,6.15-10.08,5.12-22.38-.48-25.2-11.29-3.87-14.83,6.43-28.9,22.43-24.72,2.3.6,8.85,4.41,9.21,6.83.25,1.71-2.61,4.42-3.94,5.45-1.14.87-1.88,1.19-3.08.17Z"/>
      </g>
    </g>
    <path class="cls-1" d="M149.05,17.88c.6-.18,6.83-.19,7.58-.04.27.05.49.13.67.35.66.84.2,8.35.22,9.96.09,7.62.56,15.5.21,23.15-.02.51-.15,2.48-.24,2.76-.12.35-.57.55-.91.62-.91.2-6.13.22-7.06.05-.54-.1-1.04-.6-1.15-1.15l.12-35.25c.13-.22.31-.38.56-.46Z"/>
  </g>
  <g>
    <path class="cls-1" d="M47.57,3.06c4.74,2.66,15.56,5.07,16.48,11.39.12.84.19,6.32-.06,6.68l-.76.26c-3.16-4.02-8.53-6.15-13.37-7.39v16.93c0,.09-.56.65-.84.6-.18-.03-1.37-.87-2-1.06-4.93-1.51-11.79,2.75-10.84,8.29.56,3.22,4.57,4.36,7.42,3.98,2.71-.36,7.28-3.49,7.28-6.47V15.92c0-.83,2.77.5,3.15.67,6.79,3.15,12.6,11.21,12.84,18.75-10.39,5.84-21.31,10.95-32.98,13.72-1.88.45-4.19,1.06-6.06,1.32-.89.12-3.73.47-4.32.05-1.79-1.29-3.56-9.09-3.67-11.35-.49-10.47,6.54-20.84,16.6-23.87.81-.24,3.48-.95,4.14-.95h5.6c.36-.22.35-.51.39-.88.4-3.38-1.06-7.16.24-10.32h.76Z"/>
    <path class="cls-1" d="M4.3,50.41c2.06-3.86,6.01-6.59,9.76-8.7.72-.4,3-1.72,3.6-1.75s.49.94.33,1.23-4.47,2.79-5.41,3.62c-4,3.54-3.93,6.84,2.03,7.37,15.14,1.36,42.15-8.8,54.83-17.2,1.84-1.22,6.94-4.72,7.54-6.71.56-1.87-.22-2.65-1.92-3.19-2.91-.93-6.41-.09-9.42-.13l.15-1.04c3.96-.76,12.75-2.34,15.95.53,3.78,3.39-3.72,9.18-6.24,11.01-14.76,10.66-44.39,22.02-62.67,20.81-3.09-.21-6.66-.85-8.53-3.56v-2.29Z"/>
    <path class="cls-1" d="M66.66,42.26c-.33,5.78-4.34,11.49-8.93,14.87-7.81,5.75-19.92,6.28-27.8.36-.49-.37-1.54-1.28-.69-1.87.28-.2,5.64-1.18,6.68-1.46,8.51-2.32,17.18-5.72,25.15-9.47.86-.41,4.96-3.05,5.59-2.43Z"/>
  </g>
</svg>