<?xml version="1.0" encoding="UTF-8"?>
<svg id="Layer_1" xmlns="http://www.w3.org/2000/svg" version="1.1" viewBox="0 0 83.36 83.36">
  <!-- Generator: Adobe Illustrator 30.0.0, SVG Export Plug-In . SVG Version: 2.1.1 Build 123)  -->
  <defs>
    <style>
      .st0 {
        fill: #2aa4b1;
      }
    </style>
  </defs>
  <path class="st0" d="M44.84,11.51c4.74,2.66,15.56,5.07,16.48,11.39.12.84.19,6.32-.06,6.68l-.76.26c-3.16-4.02-8.53-6.15-13.37-7.39v16.93c0,.09-.56.65-.84.6-.18-.03-1.37-.87-2-1.06-4.93-1.51-11.79,2.75-10.84,8.29.56,3.22,4.57,4.36,7.42,3.98,2.71-.36,7.28-3.49,7.28-6.47v-20.36c0-.83,2.77.5,3.15.67,6.79,3.15,12.6,11.21,12.84,18.75-10.39,5.84-21.31,10.95-32.98,13.72-1.88.45-4.19,1.06-6.06,1.32-.89.12-3.73.47-4.32.05-1.79-1.29-3.56-9.09-3.67-11.35-.49-10.47,6.54-20.84,16.6-23.87.81-.24,3.48-.95,4.14-.95h5.6c.36-.22.35-.51.39-.88.4-3.38-1.06-7.16.24-10.32h.76Z"/>
  <path class="st0" d="M1.57,58.85c2.06-3.86,6.01-6.59,9.76-8.7.72-.4,3-1.72,3.6-1.75s.49.94.33,1.23-4.47,2.79-5.41,3.62c-4,3.54-3.93,6.84,2.03,7.37,15.14,1.36,42.15-8.8,54.83-17.2,1.84-1.22,6.94-4.72,7.54-6.71.56-1.87-.22-2.65-1.92-3.19-2.91-.93-6.41-.09-9.42-.13l.15-1.04c3.96-.76,12.75-2.34,15.95.53,3.78,3.39-3.72,9.18-6.24,11.01-14.76,10.66-44.39,22.02-62.67,20.81-3.09-.21-6.66-.85-8.53-3.56v-2.29Z"/>
  <path class="st0" d="M63.93,50.71c-.33,5.78-4.34,11.49-8.93,14.87-7.81,5.75-19.92,6.28-27.8.36-.49-.37-1.54-1.28-.69-1.87.28-.2,5.64-1.18,6.68-1.46,8.51-2.32,17.18-5.72,25.15-9.47.86-.41,4.96-3.05,5.59-2.43Z"/>
</svg>